<svg width="367" height="185" viewBox="0 0 367 185" fill="none" xmlns="http://www.w3.org/2000/svg">
<path d="M56.3008 35.7067V44.7887H44.1914V81.1168H35.1094V44.7887H23V35.7067H56.3008ZM69.5775 62.9528V72.0348H90.7689V81.1168H66.5502C62.5137 81.1168 60.4955 79.0986 60.4955 75.0621V41.7614C60.4955 37.7249 62.5137 35.7067 66.5502 35.7067H90.7689V44.7887H69.5775V53.8707H81.6869L78.6595 62.9528H69.5775ZM94.9636 81.1168V41.7311C94.9636 37.6946 96.9818 35.6764 101.018 35.6764H125.267C129.304 35.6764 131.322 37.6946 131.322 41.7311V81.1168H122.24L122.21 44.7584H104.046V81.1168H94.9636ZM168.787 35.7067V44.7887H156.678V81.1168H147.596V44.7887H135.486V35.7067H168.787ZM172.982 81.1168V41.7311C172.982 37.6946 175 35.6764 179.037 35.6764H203.255C207.292 35.6764 209.31 37.6946 209.31 41.7311V81.1168H200.228V68.9772H182.064V81.1168H172.982ZM200.228 44.7584H182.064V59.8951H200.228V44.7584ZM213.505 81.1168V41.7311C213.505 37.6946 215.523 35.6764 219.559 35.6764H243.808C247.845 35.6764 249.863 37.6946 249.863 41.7311V81.1168H240.781L240.751 44.7584H222.587V81.1168H213.505ZM284.301 53.8707C288.337 53.8707 290.356 55.889 290.356 59.9254V75.0621C290.356 79.0986 288.337 81.1168 284.301 81.1168H260.082C256.046 81.1168 254.027 79.0986 254.027 75.0621V41.7614C254.027 37.7249 256.046 35.7067 260.082 35.7067H290.356V44.7887H263.11V72.0348H281.274V62.9528H269.194L272.222 53.8707H284.301ZM213.723 120.871H219.475L225.832 102.707H234.914L228.526 120.931C230.242 121.113 231.655 121.708 232.765 122.717C233.895 123.727 234.813 125.129 235.52 126.925L243.996 148.117H234.914L227.315 129.953H213.723V148.117H204.641V102.707H213.723V120.871ZM256.105 102.707V148.117H247.023V102.707H256.105ZM295.461 102.707V111.789H283.352V148.117H274.27V111.789H262.16V102.707H295.461ZM301.516 148.117V108.731C301.516 104.695 303.534 102.676 307.57 102.676H331.789C335.826 102.676 337.844 104.695 337.844 108.731V148.117H328.762V135.977H310.598V148.117H301.516ZM328.762 111.758H310.598V126.895H328.762V111.758Z" fill="#0D2432"/>
<path d="M32.082 129.953V148.117H23V108.761C23 104.725 25.0182 102.707 29.0547 102.707H53.2734V111.789H32.082V120.871H44.1914L41.1641 129.953H32.082ZM68.4102 102.707V148.117H59.3281V102.707H68.4102ZM104.738 148.117H80.5195C76.4831 148.117 74.4648 146.099 74.4648 142.062V102.707H83.5469V139.035H104.738V148.117ZM119.875 129.953V139.035H141.066V148.117H116.848C112.811 148.117 110.793 146.099 110.793 142.062V108.761C110.793 104.725 112.811 102.707 116.848 102.707H141.066V111.789H119.875V120.871H131.984L128.957 129.953H119.875ZM177.425 111.789V148.117H168.343V111.789H156.203V148.117H147.121V108.761C147.121 104.725 149.139 102.707 153.176 102.707H192.531C196.568 102.707 198.586 104.725 198.586 108.761V148.117H189.504L189.474 111.789H177.425Z" fill="#6768AB"/>
<path fill-rule="evenodd" clip-rule="evenodd" d="M24 6H343C352.941 6 361 14.0589 361 24V161C361 170.941 352.941 179 343 179H24C14.0589 179 6 170.941 6 161V24C6 14.0589 14.0589 6 24 6ZM0 24C0 10.7452 10.7452 0 24 0H343C356.255 0 367 10.7452 367 24V161C367 174.255 356.255 185 343 185H24C10.7452 185 0 174.255 0 161V24ZM29.59 4.90242C30.9182 4.90242 31.9949 3.9499 31.9949 2.77492C31.9949 1.59993 30.9182 0.647419 29.59 0.647419C28.2619 0.647419 27.1852 1.59993 27.1852 2.77492C27.1852 3.9499 28.2619 4.90242 29.59 4.90242ZM31.9949 182.225C31.9949 183.4 30.9182 184.353 29.59 184.353C28.2619 184.353 27.1852 183.4 27.1852 182.225C27.1852 181.05 28.2619 180.098 29.59 180.098C30.9182 180.098 31.9949 181.05 31.9949 182.225ZM21.2254 183.983C22.5535 183.983 23.6302 183.03 23.6302 181.855C23.6302 180.68 22.5535 179.728 21.2254 179.728C19.8972 179.728 18.8205 180.68 18.8205 181.855C18.8205 183.03 19.8972 183.983 21.2254 183.983ZM140.736 2.77492C140.736 3.9499 139.659 4.90242 138.331 4.90242C137.003 4.90242 135.926 3.9499 135.926 2.77492C135.926 1.59993 137.003 0.647419 138.331 0.647419C139.659 0.647419 140.736 1.59993 140.736 2.77492ZM138.331 184.353C139.659 184.353 140.736 183.4 140.736 182.225C140.736 181.05 139.659 180.098 138.331 180.098C137.003 180.098 135.926 181.05 135.926 182.225C135.926 183.4 137.003 184.353 138.331 184.353ZM86.3652 2.77492C86.3652 3.9499 85.2886 4.90242 83.9604 4.90242C82.6322 4.90242 81.5556 3.9499 81.5556 2.77492C81.5556 1.59993 82.6322 0.647419 83.9604 0.647419C85.2886 0.647419 86.3652 1.59993 86.3652 2.77492ZM83.9604 184.353C85.2886 184.353 86.3652 183.4 86.3652 182.225C86.3652 181.05 85.2886 180.098 83.9604 180.098C82.6322 180.098 81.5556 181.05 81.5556 182.225C81.5556 183.4 82.6322 184.353 83.9604 184.353ZM195.106 2.77492C195.106 3.9499 194.029 4.90242 192.701 4.90242C191.373 4.90242 190.296 3.9499 190.296 2.77492C190.296 1.59993 191.373 0.647419 192.701 0.647419C194.029 0.647419 195.106 1.59993 195.106 2.77492ZM192.701 184.353C194.029 184.353 195.106 183.4 195.106 182.225C195.106 181.05 194.029 180.098 192.701 180.098C191.373 180.098 190.296 181.05 190.296 182.225C190.296 183.4 191.373 184.353 192.701 184.353ZM286.072 2.77492C286.072 3.9499 284.995 4.90242 283.667 4.90242C282.339 4.90242 281.262 3.9499 281.262 2.77492C281.262 1.59993 282.339 0.647419 283.667 0.647419C284.995 0.647419 286.072 1.59993 286.072 2.77492ZM283.667 184.353C284.995 184.353 286.072 183.4 286.072 182.225C286.072 181.05 284.995 180.098 283.667 180.098C282.339 180.098 281.262 181.05 281.262 182.225C281.262 183.4 282.339 184.353 283.667 184.353ZM59.18 2.77492C59.18 3.9499 58.1034 4.90242 56.7752 4.90242C55.447 4.90242 54.3704 3.9499 54.3704 2.77492C54.3704 1.59993 55.447 0.647419 56.7752 0.647419C58.1034 0.647419 59.18 1.59993 59.18 2.77492ZM56.7752 184.353C58.1034 184.353 59.18 183.4 59.18 182.225C59.18 181.05 58.1034 180.098 56.7752 180.098C55.447 180.098 54.3704 181.05 54.3704 182.225C54.3704 183.4 55.447 184.353 56.7752 184.353ZM167.921 2.77492C167.921 3.9499 166.844 4.90242 165.516 4.90242C164.188 4.90242 163.111 3.9499 163.111 2.77492C163.111 1.59993 164.188 0.647419 165.516 0.647419C166.844 0.647419 167.921 1.59993 167.921 2.77492ZM165.516 184.353C166.844 184.353 167.921 183.4 167.921 182.225C167.921 181.05 166.844 180.098 165.516 180.098C164.188 180.098 163.111 181.05 163.111 182.225C163.111 183.4 164.188 184.353 165.516 184.353ZM258.887 2.77492C258.887 3.9499 257.81 4.90242 256.482 4.90242C255.154 4.90242 254.077 3.9499 254.077 2.77492C254.077 1.59993 255.154 0.647419 256.482 0.647419C257.81 0.647419 258.887 1.59993 258.887 2.77492ZM256.482 184.353C257.81 184.353 258.887 183.4 258.887 182.225C258.887 181.05 257.81 180.098 256.482 180.098C255.154 180.098 254.077 181.05 254.077 182.225C254.077 183.4 255.154 184.353 256.482 184.353ZM113.55 2.77492C113.55 3.9499 112.474 4.90242 111.146 4.90242C109.817 4.90242 108.741 3.9499 108.741 2.77492C108.741 1.59993 109.817 0.647419 111.146 0.647419C112.474 0.647419 113.55 1.59993 113.55 2.77492ZM111.146 184.353C112.474 184.353 113.55 183.4 113.55 182.225C113.55 181.05 112.474 180.098 111.146 180.098C109.817 180.098 108.741 181.05 108.741 182.225C108.741 183.4 109.817 184.353 111.146 184.353ZM222.291 2.77492C222.291 3.9499 221.214 4.90242 219.886 4.90242C218.558 4.90242 217.481 3.9499 217.481 2.77492C217.481 1.59993 218.558 0.647419 219.886 0.647419C221.214 0.647419 222.291 1.59993 222.291 2.77492ZM219.886 184.353C221.214 184.353 222.291 183.4 222.291 182.225C222.291 181.05 221.214 180.098 219.886 180.098C218.558 180.098 217.481 181.05 217.481 182.225C217.481 183.4 218.558 184.353 219.886 184.353ZM313.257 2.77492C313.257 3.9499 312.18 4.90242 310.852 4.90242C309.524 4.90242 308.447 3.9499 308.447 2.77492C308.447 1.59993 309.524 0.647419 310.852 0.647419C312.18 0.647419 313.257 1.59993 313.257 2.77492ZM310.852 184.353C312.18 184.353 313.257 183.4 313.257 182.225C313.257 181.05 312.18 180.098 310.852 180.098C309.524 180.098 308.447 181.05 308.447 182.225C308.447 183.4 309.524 184.353 310.852 184.353ZM40.8823 2.77492C40.8823 3.9499 39.8056 4.90242 38.4775 4.90242C37.1493 4.90242 36.0726 3.9499 36.0726 2.77492C36.0726 1.59993 37.1493 0.647419 38.4775 0.647419C39.8056 0.647419 40.8823 1.59993 40.8823 2.77492ZM38.4775 184.353C39.8056 184.353 40.8823 183.4 40.8823 182.225C40.8823 181.05 39.8056 180.098 38.4775 180.098C37.1493 180.098 36.0726 181.05 36.0726 182.225C36.0726 183.4 37.1493 184.353 38.4775 184.353ZM149.623 2.77492C149.623 3.9499 148.546 4.90242 147.218 4.90242C145.89 4.90242 144.813 3.9499 144.813 2.77492C144.813 1.59993 145.89 0.647419 147.218 0.647419C148.546 0.647419 149.623 1.59993 149.623 2.77492ZM147.218 184.353C148.546 184.353 149.623 183.4 149.623 182.225C149.623 181.05 148.546 180.098 147.218 180.098C145.89 180.098 144.813 181.05 144.813 182.225C144.813 183.4 145.89 184.353 147.218 184.353ZM95.2527 2.77492C95.2527 3.9499 94.176 4.90242 92.8479 4.90242C91.5197 4.90242 90.443 3.9499 90.443 2.77492C90.443 1.59993 91.5197 0.647419 92.8479 0.647419C94.176 0.647419 95.2527 1.59993 95.2527 2.77492ZM92.8479 184.353C94.176 184.353 95.2527 183.4 95.2527 182.225C95.2527 181.05 94.176 180.098 92.8479 180.098C91.5197 180.098 90.443 181.05 90.443 182.225C90.443 183.4 91.5197 184.353 92.8479 184.353ZM203.993 2.77492C203.993 3.9499 202.917 4.90242 201.589 4.90242C200.26 4.90242 199.184 3.9499 199.184 2.77492C199.184 1.59993 200.26 0.647419 201.589 0.647419C202.917 0.647419 203.993 1.59993 203.993 2.77492ZM201.589 184.353C202.917 184.353 203.993 183.4 203.993 182.225C203.993 181.05 202.917 180.098 201.589 180.098C200.26 180.098 199.184 181.05 199.184 182.225C199.184 183.4 200.26 184.353 201.589 184.353ZM294.959 2.77492C294.959 3.9499 293.883 4.90242 292.554 4.90242C291.226 4.90242 290.15 3.9499 290.15 2.77492C290.15 1.59993 291.226 0.647419 292.554 0.647419C293.883 0.647419 294.959 1.59993 294.959 2.77492ZM292.554 184.353C293.883 184.353 294.959 183.4 294.959 182.225C294.959 181.05 293.883 180.098 292.554 180.098C291.226 180.098 290.15 181.05 290.15 182.225C290.15 183.4 291.226 184.353 292.554 184.353ZM68.0675 2.77492C68.0675 3.9499 66.9908 4.90242 65.6627 4.90242C64.3345 4.90242 63.2578 3.9499 63.2578 2.77492C63.2578 1.59993 64.3345 0.647419 65.6627 0.647419C66.9908 0.647419 68.0675 1.59993 68.0675 2.77492ZM65.6627 184.353C66.9908 184.353 68.0675 183.4 68.0675 182.225C68.0675 181.05 66.9908 180.098 65.6627 180.098C64.3345 180.098 63.2578 181.05 63.2578 182.225C63.2578 183.4 64.3345 184.353 65.6627 184.353ZM176.808 2.77492C176.808 3.9499 175.732 4.90242 174.403 4.90242C173.075 4.90242 171.999 3.9499 171.999 2.77492C171.999 1.59993 173.075 0.647419 174.403 0.647419C175.732 0.647419 176.808 1.59993 176.808 2.77492ZM174.403 184.353C175.732 184.353 176.808 183.4 176.808 182.225C176.808 181.05 175.732 180.098 174.403 180.098C173.075 180.098 171.999 181.05 171.999 182.225C171.999 183.4 173.075 184.353 174.403 184.353ZM267.774 2.77492C267.774 3.9499 266.697 4.90242 265.369 4.90242C264.041 4.90242 262.964 3.9499 262.964 2.77492C262.964 1.59993 264.041 0.647419 265.369 0.647419C266.697 0.647419 267.774 1.59993 267.774 2.77492ZM265.369 184.353C266.697 184.353 267.774 183.4 267.774 182.225C267.774 181.05 266.697 180.098 265.369 180.098C264.041 180.098 262.964 181.05 262.964 182.225C262.964 183.4 264.041 184.353 265.369 184.353ZM122.438 2.77492C122.438 3.9499 121.361 4.90242 120.033 4.90242C118.705 4.90242 117.628 3.9499 117.628 2.77492C117.628 1.59993 118.705 0.647419 120.033 0.647419C121.361 0.647419 122.438 1.59993 122.438 2.77492ZM120.033 184.353C121.361 184.353 122.438 183.4 122.438 182.225C122.438 181.05 121.361 180.098 120.033 180.098C118.705 180.098 117.628 181.05 117.628 182.225C117.628 183.4 118.705 184.353 120.033 184.353ZM231.179 2.77492C231.179 3.9499 230.102 4.90242 228.774 4.90242C227.446 4.90242 226.369 3.9499 226.369 2.77492C226.369 1.59993 227.446 0.647419 228.774 0.647419C230.102 0.647419 231.179 1.59993 231.179 2.77492ZM228.774 184.353C230.102 184.353 231.179 183.4 231.179 182.225C231.179 181.05 230.102 180.098 228.774 180.098C227.446 180.098 226.369 181.05 226.369 182.225C226.369 183.4 227.446 184.353 228.774 184.353ZM322.144 2.77492C322.144 3.9499 321.068 4.90242 319.74 4.90242C318.411 4.90242 317.335 3.9499 317.335 2.77492C317.335 1.59993 318.411 0.647419 319.74 0.647419C321.068 0.647419 322.144 1.59993 322.144 2.77492ZM338.037 4.90242C339.365 4.90242 340.442 3.9499 340.442 2.77492C340.442 1.59993 339.365 0.647419 338.037 0.647419C336.709 0.647419 335.632 1.59993 335.632 2.77492C335.632 3.9499 336.709 4.90242 338.037 4.90242ZM322.144 182.225C322.144 183.4 321.068 184.353 319.74 184.353C318.411 184.353 317.335 183.4 317.335 182.225C317.335 181.05 318.411 180.098 319.74 180.098C321.068 180.098 322.144 181.05 322.144 182.225ZM47.365 4.90242C48.6931 4.90242 49.7698 3.9499 49.7698 2.77492C49.7698 1.59993 48.6931 0.647419 47.365 0.647419C46.0368 0.647419 44.9601 1.59993 44.9601 2.77492C44.9601 3.9499 46.0368 4.90242 47.365 4.90242ZM49.7698 182.225C49.7698 183.4 48.6931 184.353 47.365 184.353C46.0368 184.353 44.9601 183.4 44.9601 182.225C44.9601 181.05 46.0368 180.098 47.365 180.098C48.6931 180.098 49.7698 181.05 49.7698 182.225ZM156.106 4.90242C157.434 4.90242 158.511 3.9499 158.511 2.77492C158.511 1.59993 157.434 0.647419 156.106 0.647419C154.778 0.647419 153.701 1.59993 153.701 2.77492C153.701 3.9499 154.778 4.90242 156.106 4.90242ZM158.511 182.225C158.511 183.4 157.434 184.353 156.106 184.353C154.778 184.353 153.701 183.4 153.701 182.225C153.701 181.05 154.778 180.098 156.106 180.098C157.434 180.098 158.511 181.05 158.511 182.225ZM247.072 4.90242C248.4 4.90242 249.476 3.9499 249.476 2.77492C249.476 1.59993 248.4 0.647419 247.072 0.647419C245.743 0.647419 244.667 1.59993 244.667 2.77492C244.667 3.9499 245.743 4.90242 247.072 4.90242ZM249.476 182.225C249.476 183.4 248.4 184.353 247.072 184.353C245.743 184.353 244.667 183.4 244.667 182.225C244.667 181.05 245.743 180.098 247.072 180.098C248.4 180.098 249.476 181.05 249.476 182.225ZM101.735 4.90242C103.063 4.90242 104.14 3.9499 104.14 2.77492C104.14 1.59993 103.063 0.647419 101.735 0.647419C100.407 0.647419 99.3305 1.59993 99.3305 2.77492C99.3305 3.9499 100.407 4.90242 101.735 4.90242ZM104.14 182.225C104.14 183.4 103.063 184.353 101.735 184.353C100.407 184.353 99.3305 183.4 99.3305 182.225C99.3305 181.05 100.407 180.098 101.735 180.098C103.063 180.098 104.14 181.05 104.14 182.225ZM210.476 4.90242C211.804 4.90242 212.881 3.9499 212.881 2.77492C212.881 1.59993 211.804 0.647419 210.476 0.647419C209.148 0.647419 208.071 1.59993 208.071 2.77492C208.071 3.9499 209.148 4.90242 210.476 4.90242ZM212.881 182.225C212.881 183.4 211.804 184.353 210.476 184.353C209.148 184.353 208.071 183.4 208.071 182.225C208.071 181.05 209.148 180.098 210.476 180.098C211.804 180.098 212.881 181.05 212.881 182.225ZM301.442 4.90242C302.77 4.90242 303.847 3.9499 303.847 2.77492C303.847 1.59993 302.77 0.647419 301.442 0.647419C300.114 0.647419 299.037 1.59993 299.037 2.77492C299.037 3.9499 300.114 4.90242 301.442 4.90242ZM303.847 182.225C303.847 183.4 302.77 184.353 301.442 184.353C300.114 184.353 299.037 183.4 299.037 182.225C299.037 181.05 300.114 180.098 301.442 180.098C302.77 180.098 303.847 181.05 303.847 182.225ZM74.5501 4.90242C75.8783 4.90242 76.955 3.9499 76.955 2.77492C76.955 1.59993 75.8783 0.647419 74.5501 0.647419C73.222 0.647419 72.1453 1.59993 72.1453 2.77492C72.1453 3.9499 73.222 4.90242 74.5501 4.90242ZM76.955 182.225C76.955 183.4 75.8783 184.353 74.5501 184.353C73.222 184.353 72.1453 183.4 72.1453 182.225C72.1453 181.05 73.222 180.098 74.5501 180.098C75.8783 180.098 76.955 181.05 76.955 182.225ZM183.291 4.90242C184.619 4.90242 185.696 3.9499 185.696 2.77492C185.696 1.59993 184.619 0.647419 183.291 0.647419C181.963 0.647419 180.886 1.59993 180.886 2.77492C180.886 3.9499 181.963 4.90242 183.291 4.90242ZM185.696 182.225C185.696 183.4 184.619 184.353 183.291 184.353C181.963 184.353 180.886 183.4 180.886 182.225C180.886 181.05 181.963 180.098 183.291 180.098C184.619 180.098 185.696 181.05 185.696 182.225ZM274.257 4.90242C275.585 4.90242 276.662 3.9499 276.662 2.77492C276.662 1.59993 275.585 0.647419 274.257 0.647419C272.929 0.647419 271.852 1.59993 271.852 2.77492C271.852 3.9499 272.929 4.90242 274.257 4.90242ZM276.662 182.225C276.662 183.4 275.585 184.353 274.257 184.353C272.929 184.353 271.852 183.4 271.852 182.225C271.852 181.05 272.929 180.098 274.257 180.098C275.585 180.098 276.662 181.05 276.662 182.225ZM128.921 4.90242C130.249 4.90242 131.325 3.9499 131.325 2.77492C131.325 1.59993 130.249 0.647419 128.921 0.647419C127.592 0.647419 126.516 1.59993 126.516 2.77492C126.516 3.9499 127.592 4.90242 128.921 4.90242ZM131.325 182.225C131.325 183.4 130.249 184.353 128.921 184.353C127.592 184.353 126.516 183.4 126.516 182.225C126.516 181.05 127.592 180.098 128.921 180.098C130.249 180.098 131.325 181.05 131.325 182.225ZM237.661 4.90242C238.989 4.90242 240.066 3.9499 240.066 2.77492C240.066 1.59993 238.989 0.647419 237.661 0.647419C236.333 0.647419 235.256 1.59993 235.256 2.77492C235.256 3.9499 236.333 4.90242 237.661 4.90242ZM240.066 182.225C240.066 183.4 238.989 184.353 237.661 184.353C236.333 184.353 235.256 183.4 235.256 182.225C235.256 181.05 236.333 180.098 237.661 180.098C238.989 180.098 240.066 181.05 240.066 182.225ZM328.627 4.90242C329.955 4.90242 331.032 3.9499 331.032 2.77492C331.032 1.59993 329.955 0.647419 328.627 0.647419C327.299 0.647419 326.222 1.59993 326.222 2.77492C326.222 3.9499 327.299 4.90242 328.627 4.90242ZM350.166 3.33002C350.166 4.505 349.089 5.45752 347.761 5.45752C346.433 5.45752 345.356 4.505 345.356 3.33002C345.356 2.15503 346.433 1.20252 347.761 1.20252C349.089 1.20252 350.166 2.15503 350.166 3.33002ZM19.8661 5.45752C21.1942 5.45752 22.2709 4.505 22.2709 3.33002C22.2709 2.15503 21.1942 1.20252 19.8661 1.20252C18.5379 1.20252 17.4612 2.15503 17.4612 3.33002C17.4612 4.505 18.5379 5.45752 19.8661 5.45752ZM357.903 7.03012C357.903 8.2051 356.827 9.15762 355.499 9.15762C354.17 9.15762 353.094 8.2051 353.094 7.03012C353.094 5.85513 354.17 4.90262 355.499 4.90262C356.827 4.90262 357.903 5.85513 357.903 7.03012ZM11.5014 9.15762C12.8296 9.15762 13.9063 8.2051 13.9063 7.03012C13.9063 5.85513 12.8296 4.90262 11.5014 4.90262C10.1733 4.90262 9.09657 5.85513 9.09657 7.03012C9.09657 8.2051 10.1733 9.15762 11.5014 9.15762ZM363.759 12.9499C363.759 14.1249 362.682 15.0774 361.354 15.0774C360.026 15.0774 358.949 14.1249 358.949 12.9499C358.949 11.7749 360.026 10.8224 361.354 10.8224C362.682 10.8224 363.759 11.7749 363.759 12.9499ZM5.85527 14.7075C7.18343 14.7075 8.26011 13.755 8.26011 12.58C8.26011 11.4051 7.18343 10.4525 5.85527 10.4525C4.52711 10.4525 3.45042 11.4051 3.45042 12.58C3.45042 13.755 4.52711 14.7075 5.85527 14.7075ZM331.032 182.225C331.032 183.4 329.955 184.353 328.627 184.353C327.299 184.353 326.222 183.4 326.222 182.225C326.222 181.05 327.299 180.098 328.627 180.098C329.955 180.098 331.032 181.05 331.032 182.225ZM366.268 140.877C366.268 139.702 365.191 138.75 363.863 138.75C362.535 138.75 361.458 139.702 361.458 140.877C361.458 142.052 362.535 143.005 363.863 143.005C365.191 143.005 366.268 142.052 366.268 140.877ZM3.13675 138.75C4.4649 138.75 5.54159 139.702 5.54159 140.877C5.54159 142.052 4.4649 143.005 3.13675 143.005C1.80859 143.005 0.731903 142.052 0.731903 140.877C0.731903 139.702 1.80859 138.75 3.13675 138.75ZM366.268 60.4025C366.268 59.2275 365.191 58.275 363.863 58.275C362.535 58.275 361.458 59.2275 361.458 60.4025C361.458 61.5775 362.535 62.53 363.863 62.53C365.191 62.53 366.268 61.5775 366.268 60.4025ZM3.13675 58.275C4.4649 58.275 5.54159 59.2275 5.54159 60.4025C5.54159 61.5775 4.4649 62.53 3.13675 62.53C1.80859 62.53 0.731903 61.5775 0.731903 60.4025C0.731903 59.2275 1.80859 58.275 3.13675 58.275ZM366.268 164.927C366.268 163.752 365.191 162.8 363.863 162.8C362.535 162.8 361.458 163.752 361.458 164.927C361.458 166.102 362.535 167.055 363.863 167.055C365.191 167.055 366.268 166.102 366.268 164.927ZM3.13675 162.8C4.4649 162.8 5.54159 163.752 5.54159 164.927C5.54159 166.102 4.4649 167.055 3.13675 167.055C1.80859 167.055 0.731903 166.102 0.731903 164.927C0.731903 163.752 1.80859 162.8 3.13675 162.8ZM366.268 84.4524C366.268 83.2774 365.191 82.3249 363.863 82.3249C362.535 82.3249 361.458 83.2774 361.458 84.4524C361.458 85.6273 362.535 86.5799 363.863 86.5799C365.191 86.5799 366.268 85.6273 366.268 84.4524ZM3.13675 82.3249C4.4649 82.3249 5.54159 83.2774 5.54159 84.4524C5.54159 85.6273 4.4649 86.5799 3.13675 86.5799C1.80859 86.5799 0.731903 85.6273 0.731903 84.4524C0.731903 83.2774 1.80859 82.3249 3.13675 82.3249ZM363.863 114.7C365.191 114.7 366.268 115.653 366.268 116.827C366.268 118.002 365.191 118.955 363.863 118.955C362.535 118.955 361.458 118.002 361.458 116.827C361.458 115.653 362.535 114.7 363.863 114.7ZM5.54159 116.827C5.54159 115.653 4.4649 114.7 3.13675 114.7C1.80859 114.7 0.731903 115.653 0.731903 116.827C0.731903 118.002 1.80859 118.955 3.13675 118.955C4.4649 118.955 5.54159 118.002 5.54159 116.827ZM363.863 34.2249C365.191 34.2249 366.268 35.1774 366.268 36.3524C366.268 37.5274 365.191 38.4799 363.863 38.4799C362.535 38.4799 361.458 37.5274 361.458 36.3524C361.458 35.1774 362.535 34.2249 363.863 34.2249ZM5.54159 36.3524C5.54159 35.1774 4.4649 34.2249 3.13675 34.2249C1.80859 34.2249 0.731903 35.1774 0.731903 36.3524C0.731903 37.5274 1.80859 38.4799 3.13675 38.4799C4.4649 38.4799 5.54159 37.5274 5.54159 36.3524ZM338.037 180.375C339.365 180.375 340.442 181.328 340.442 182.503C340.442 183.678 339.365 184.63 338.037 184.63C336.709 184.63 335.632 183.678 335.632 182.503C335.632 181.328 336.709 180.375 338.037 180.375ZM363.863 130.887C365.191 130.887 366.268 131.84 366.268 133.015C366.268 134.19 365.191 135.142 363.863 135.142C362.535 135.142 361.458 134.19 361.458 133.015C361.458 131.84 362.535 130.887 363.863 130.887ZM5.54159 133.015C5.54159 131.84 4.4649 130.887 3.13675 130.887C1.80859 130.887 0.731903 131.84 0.731903 133.015C0.731903 134.19 1.80859 135.142 3.13675 135.142C4.4649 135.142 5.54159 134.19 5.54159 133.015ZM363.863 50.4124C365.191 50.4124 366.268 51.3649 366.268 52.5399C366.268 53.7149 365.191 54.6674 363.863 54.6674C362.535 54.6674 361.458 53.7149 361.458 52.5399C361.458 51.3649 362.535 50.4124 363.863 50.4124ZM5.54159 52.5399C5.54159 51.3649 4.4649 50.4124 3.13675 50.4124C1.80859 50.4124 0.731903 51.3649 0.731903 52.5399C0.731903 53.7149 1.80859 54.6674 3.13675 54.6674C4.4649 54.6674 5.54159 53.7149 5.54159 52.5399ZM363.863 154.937C365.191 154.937 366.268 155.89 366.268 157.065C366.268 158.24 365.191 159.192 363.863 159.192C362.535 159.192 361.458 158.24 361.458 157.065C361.458 155.89 362.535 154.937 363.863 154.937ZM5.54159 157.065C5.54159 155.89 4.4649 154.937 3.13675 154.937C1.80859 154.937 0.731903 155.89 0.731903 157.065C0.731903 158.24 1.80859 159.192 3.13675 159.192C4.4649 159.192 5.54159 158.24 5.54159 157.065ZM363.863 74.4625C365.191 74.4625 366.268 75.415 366.268 76.59C366.268 77.7649 365.191 78.7175 363.863 78.7175C362.535 78.7175 361.458 77.7649 361.458 76.59C361.458 75.415 362.535 74.4625 363.863 74.4625ZM5.54159 76.59C5.54159 75.415 4.4649 74.4625 3.13675 74.4625C1.80859 74.4625 0.731903 75.415 0.731903 76.59C0.731903 77.7649 1.80859 78.7175 3.13675 78.7175C4.4649 78.7175 5.54159 77.7649 5.54159 76.59ZM366.268 108.965C366.268 107.79 365.191 106.837 363.863 106.837C362.535 106.837 361.458 107.79 361.458 108.965C361.458 110.14 362.535 111.092 363.863 111.092C365.191 111.092 366.268 110.14 366.268 108.965ZM3.13675 106.837C4.4649 106.837 5.54159 107.79 5.54159 108.965C5.54159 110.14 4.4649 111.092 3.13675 111.092C1.80859 111.092 0.731903 110.14 0.731903 108.965C0.731903 107.79 1.80859 106.837 3.13675 106.837ZM366.268 28.49C366.268 27.315 365.191 26.3625 363.863 26.3625C362.535 26.3625 361.458 27.315 361.458 28.49C361.458 29.665 362.535 30.6175 363.863 30.6175C365.191 30.6175 366.268 29.665 366.268 28.49ZM3.13675 26.3625C4.4649 26.3625 5.54159 27.315 5.54159 28.49C5.54159 29.665 4.4649 30.6175 3.13675 30.6175C1.80859 30.6175 0.731903 29.665 0.731903 28.49C0.731903 27.315 1.80859 26.3625 3.13675 26.3625ZM349.852 181.578C349.852 180.403 348.776 179.45 347.448 179.45C346.119 179.45 345.043 180.403 345.043 181.578C345.043 182.753 346.119 183.705 347.448 183.705C348.776 183.705 349.852 182.753 349.852 181.578ZM12.547 176.397C13.8752 176.397 14.9519 177.35 14.9519 178.525C14.9519 179.7 13.8752 180.652 12.547 180.652C11.2189 180.652 10.1422 179.7 10.1422 178.525C10.1422 177.35 11.2189 176.397 12.547 176.397ZM358.217 177.877C358.217 176.702 357.14 175.75 355.812 175.75C354.484 175.75 353.407 176.702 353.407 177.877C353.407 179.052 354.484 180.005 355.812 180.005C357.14 180.005 358.217 179.052 358.217 177.877ZM361.04 170.2C362.368 170.2 363.445 171.153 363.445 172.328C363.445 173.503 362.368 174.455 361.04 174.455C359.712 174.455 358.635 173.503 358.635 172.328C358.635 171.153 359.712 170.2 361.04 170.2ZM8.67834 172.975C8.67834 171.8 7.60165 170.848 6.2735 170.848C4.94534 170.848 3.86865 171.8 3.86865 172.975C3.86865 174.15 4.94534 175.103 6.2735 175.103C7.60165 175.103 8.67834 174.15 8.67834 172.975ZM363.863 90.6499C365.191 90.6499 366.268 91.6024 366.268 92.7774C366.268 93.9524 365.191 94.9049 363.863 94.9049C362.535 94.9049 361.458 93.9524 361.458 92.7774C361.458 91.6024 362.535 90.6499 363.863 90.6499ZM5.54159 92.7774C5.54159 91.6024 4.4649 90.6499 3.13675 90.6499C1.80859 90.6499 0.731903 91.6024 0.731903 92.7774C0.731903 93.9524 1.80859 94.9049 3.13675 94.9049C4.4649 94.9049 5.54159 93.9524 5.54159 92.7774ZM366.268 125.152C366.268 123.977 365.191 123.025 363.863 123.025C362.535 123.025 361.458 123.977 361.458 125.152C361.458 126.327 362.535 127.28 363.863 127.28C365.191 127.28 366.268 126.327 366.268 125.152ZM3.13675 123.025C4.4649 123.025 5.54159 123.977 5.54159 125.152C5.54159 126.327 4.4649 127.28 3.13675 127.28C1.80859 127.28 0.731903 126.327 0.731903 125.152C0.731903 123.977 1.80859 123.025 3.13675 123.025ZM366.268 44.6775C366.268 43.5025 365.191 42.55 363.863 42.55C362.535 42.55 361.458 43.5025 361.458 44.6775C361.458 45.8525 362.535 46.805 363.863 46.805C365.191 46.805 366.268 45.8525 366.268 44.6775ZM3.13675 42.55C4.4649 42.55 5.54159 43.5025 5.54159 44.6775C5.54159 45.8525 4.4649 46.805 3.13675 46.805C1.80859 46.805 0.731903 45.8525 0.731903 44.6775C0.731903 43.5025 1.80859 42.55 3.13675 42.55ZM366.268 149.202C366.268 148.027 365.191 147.075 363.863 147.075C362.535 147.075 361.458 148.027 361.458 149.202C361.458 150.377 362.535 151.33 363.863 151.33C365.191 151.33 366.268 150.377 366.268 149.202ZM3.13675 147.075C4.4649 147.075 5.54159 148.027 5.54159 149.202C5.54159 150.377 4.4649 151.33 3.13675 151.33C1.80859 151.33 0.731903 150.377 0.731903 149.202C0.731903 148.027 1.80859 147.075 3.13675 147.075ZM366.268 68.7274C366.268 67.5525 365.191 66.6 363.863 66.6C362.535 66.6 361.458 67.5525 361.458 68.7274C361.458 69.9024 362.535 70.8549 363.863 70.8549C365.191 70.8549 366.268 69.9024 366.268 68.7274ZM3.13675 66.6C4.4649 66.6 5.54159 67.5525 5.54159 68.7274C5.54159 69.9024 4.4649 70.8549 3.13675 70.8549C1.80859 70.8549 0.731903 69.9024 0.731903 68.7274C0.731903 67.5525 1.80859 66.6 3.13675 66.6ZM363.863 98.975C365.191 98.975 366.268 99.9275 366.268 101.102C366.268 102.277 365.191 103.23 363.863 103.23C362.535 103.23 361.458 102.277 361.458 101.102C361.458 99.9275 362.535 98.975 363.863 98.975ZM5.54159 101.102C5.54159 99.9275 4.4649 98.975 3.13675 98.975C1.80859 98.975 0.731903 99.9275 0.731903 101.102C0.731903 102.277 1.80859 103.23 3.13675 103.23C4.4649 103.23 5.54159 102.277 5.54159 101.102ZM363.863 18.4999C365.191 18.4999 366.268 19.4524 366.268 20.6274C366.268 21.8024 365.191 22.7549 363.863 22.7549C362.535 22.7549 361.458 21.8024 361.458 20.6274C361.458 19.4524 362.535 18.4999 363.863 18.4999ZM5.54159 20.6274C5.54159 19.4524 4.4649 18.4999 3.13675 18.4999C1.80859 18.4999 0.731903 19.4524 0.731903 20.6274C0.731903 21.8024 1.80859 22.7549 3.13675 22.7549C4.4649 22.7549 5.54159 21.8024 5.54159 20.6274Z" fill="#0D2432"/>
</svg>
