<svg width="29" height="44" viewBox="0 0 29 44" fill="none" xmlns="http://www.w3.org/2000/svg">
<g filter="url(#filter0_d_219_1025)">
<path d="M17.7291 34.6831L2.28322 19.2831C2.09989 19.0997 1.97033 18.9011 1.89455 18.6872C1.81755 18.4733 1.77905 18.2442 1.77905 17.9997C1.77905 17.7553 1.81755 17.5261 1.89455 17.3122C1.97033 17.0984 2.09989 16.8997 2.28322 16.7164L17.7291 1.27057C18.1568 0.842795 18.6916 0.628906 19.3332 0.628906C19.9749 0.628906 20.5249 0.858073 20.9832 1.31641C21.4416 1.77474 21.6707 2.30946 21.6707 2.92057C21.6707 3.53168 21.4416 4.06641 20.9832 4.52474L7.50822 17.9997L20.9832 31.4747C21.411 31.9025 21.6249 32.4293 21.6249 33.0551C21.6249 33.6821 21.3957 34.2247 20.9374 34.6831C20.4791 35.1414 19.9443 35.3706 19.3332 35.3706C18.7221 35.3706 18.1874 35.1414 17.7291 34.6831Z" fill="#F9F8FF"/>
<path d="M18.0826 34.3295L18.0821 34.329L2.63677 18.9295C2.63664 18.9294 2.63651 18.9293 2.63638 18.9291C2.49841 18.7911 2.41339 18.6545 2.36585 18.5203L2.365 18.5179C2.30898 18.3623 2.27905 18.1908 2.27905 17.9997C2.27905 17.8087 2.30898 17.6372 2.365 17.4816L2.36585 17.4792C2.41344 17.3449 2.49857 17.2082 2.63677 17.07L18.0826 1.62413C18.4105 1.29625 18.8152 1.12891 19.3332 1.12891C19.8408 1.12891 20.264 1.30432 20.6297 1.66996C21.0005 2.04084 21.1707 2.45074 21.1707 2.92057C21.1707 3.39041 21.0005 3.80031 20.6297 4.17119L7.15467 17.6462L6.80111 17.9997L7.15467 18.3533L20.6297 31.8283C20.9601 32.1588 21.1249 32.5568 21.1249 33.0551C21.1249 33.5445 20.9519 33.9614 20.5838 34.3295C20.213 34.7004 19.8031 34.8706 19.3332 34.8706C18.8634 34.8706 18.4535 34.7004 18.0826 34.3295Z" stroke="#ABA9BB"/>
</g>
<defs>
<filter id="filter0_d_219_1025" x="0.779053" y="0.628906" width="27.8916" height="42.7412" filterUnits="userSpaceOnUse" color-interpolation-filters="sRGB">
<feFlood flood-opacity="0" result="BackgroundImageFix"/>
<feColorMatrix in="SourceAlpha" type="matrix" values="0 0 0 0 0 0 0 0 0 0 0 0 0 0 0 0 0 0 127 0" result="hardAlpha"/>
<feOffset dx="3" dy="4"/>
<feGaussianBlur stdDeviation="2"/>
<feComposite in2="hardAlpha" operator="out"/>
<feColorMatrix type="matrix" values="0 0 0 0 0 0 0 0 0 0 0 0 0 0 0 0 0 0 0.5 0"/>
<feBlend mode="normal" in2="BackgroundImageFix" result="effect1_dropShadow_219_1025"/>
<feBlend mode="normal" in="SourceGraphic" in2="effect1_dropShadow_219_1025" result="shape"/>
</filter>
</defs>
</svg>
