<svg width="29" height="44" viewBox="0 0 29 44" fill="none" xmlns="http://www.w3.org/2000/svg">
<g filter="url(#filter0_d_219_1023)">
<path d="M5.27083 1.31693L20.7167 16.7169C20.9 16.9003 21.0295 17.0989 21.1053 17.3128C21.1823 17.5267 21.2208 17.7558 21.2208 18.0003C21.2208 18.2447 21.1823 18.4739 21.1053 18.6878C21.0295 18.9016 20.9 19.1003 20.7167 19.2836L5.27082 34.7294C4.84305 35.1572 4.30832 35.3711 3.66666 35.3711C3.02499 35.3711 2.47499 35.1419 2.01666 34.6836C1.55832 34.2253 1.32916 33.6905 1.32916 33.0794C1.32916 32.4683 1.55832 31.9336 2.01666 31.4753L15.4917 18.0003L2.01666 4.52526C1.58888 4.09748 1.37499 3.57071 1.37499 2.94493C1.37499 2.31793 1.60416 1.77526 2.06249 1.31693C2.52083 0.858595 3.05555 0.629427 3.66666 0.629427C4.27777 0.629427 4.81249 0.858595 5.27083 1.31693Z" fill="#F9F8FF"/>
<path d="M4.91727 1.67048L4.9178 1.67101L20.3631 17.0705C20.3632 17.0706 20.3634 17.0707 20.3635 17.0709C20.5015 17.2089 20.5865 17.3455 20.634 17.4797L20.6349 17.4821C20.6909 17.6377 20.7208 17.8092 20.7208 18.0003C20.7208 18.1913 20.6909 18.3628 20.6349 18.5184L20.634 18.5208C20.5864 18.6551 20.5013 18.7918 20.3631 18.93L4.91727 34.3759C4.58939 34.7038 4.18464 34.8711 3.66666 34.8711C3.15911 34.8711 2.73585 34.6957 2.37021 34.33C1.99933 33.9592 1.82916 33.5493 1.82916 33.0794C1.82916 32.6096 1.99933 32.1997 2.37021 31.8288L15.8452 18.3538L16.1988 18.0003L15.8452 17.6467L2.37021 4.17171C2.03975 3.84124 1.87499 3.44319 1.87499 2.94493C1.87499 2.45546 2.04794 2.03858 2.41605 1.67048C2.78692 1.2996 3.19683 1.12943 3.66666 1.12943C4.13649 1.12943 4.5464 1.2996 4.91727 1.67048Z" stroke="#ABA9BB"/>
</g>
<defs>
<filter id="filter0_d_219_1023" x="0.329102" y="0.629883" width="27.8917" height="42.7412" filterUnits="userSpaceOnUse" color-interpolation-filters="sRGB">
<feFlood flood-opacity="0" result="BackgroundImageFix"/>
<feColorMatrix in="SourceAlpha" type="matrix" values="0 0 0 0 0 0 0 0 0 0 0 0 0 0 0 0 0 0 127 0" result="hardAlpha"/>
<feOffset dx="3" dy="4"/>
<feGaussianBlur stdDeviation="2"/>
<feComposite in2="hardAlpha" operator="out"/>
<feColorMatrix type="matrix" values="0 0 0 0 0 0 0 0 0 0 0 0 0 0 0 0 0 0 0.5 0"/>
<feBlend mode="normal" in2="BackgroundImageFix" result="effect1_dropShadow_219_1023"/>
<feBlend mode="normal" in="SourceGraphic" in2="effect1_dropShadow_219_1023" result="shape"/>
</filter>
</defs>
</svg>
